<svg id="Layer_1" data-name="Layer 1" xmlns="http://www.w3.org/2000/svg" viewBox="0 0 308 172"><defs><style>.cls-1{fill:#5d5f71;}.cls-2{fill:none;}.cls-3,.cls-4{fill:#231f20;}.cls-4{fill-rule:evenodd;}</style></defs><path class="cls-1" d="M0,0H308a0,0,0,0,1,0,0V80.31A91.69,91.69,0,0,1,216.31,172H91.69A91.69,91.69,0,0,1,0,80.31V0A0,0,0,0,1,0,0Z"/><path d="M2269.67,63.36h7.06c3.87,0,6,2,6,5a4.39,4.39,0,0,1-3.13,4.43,5.11,5.11,0,0,1,3.85,5c0,4-3,5.84-6.57,5.84h-7.17Zm6.54,8.7c3.5,0,4.83-1.3,4.83-3.64,0-2-1.39-3.61-4.22-3.61h-5.61v7.25Zm-5,10.1h5.69c2.66,0,4.89-1.34,4.89-4.31,0-2.58-1.65-4.34-5.73-4.34h-4.85Z" transform="translate(-2198 0)"/><path d="M2297.25,80.85a15.88,15.88,0,0,0,.21,2.75h-1.39a9.39,9.39,0,0,1-.26-2.23c-.49,1.07-1.77,2.58-4.74,2.58-3.36,0-4.8-2.17-4.8-4.34,0-3.18,2.45-4.63,6.79-4.63h2.75V73.51c0-1.45-.44-3.38-3.73-3.38-2.92,0-3.36,1.53-3.67,2.71H2287c.17-1.59,1.16-4,5.15-4,3.29,0,5.14,1.38,5.14,4.56Zm-1.41-4.62H2293c-3.21,0-5.2.84-5.2,3.32a3,3,0,0,0,3.32,3.07c4.14,0,4.72-2.75,4.72-5.87Z" transform="translate(-2198 0)"/><path d="M2301.88,79.61a3.83,3.83,0,0,0,4.1,3c2.58,0,3.62-1.19,3.62-2.81s-.7-2.46-3.93-3.24c-3.74-.89-4.66-2-4.66-3.93s1.5-3.84,4.77-3.84,4.83,2,5.06,4h-1.45a3.4,3.4,0,0,0-3.67-2.71c-2.51,0-3.24,1.24-3.24,2.4,0,1.33.7,2,3.56,2.68,4.08,1,5.09,2.32,5.09,4.49,0,2.63-2.14,4.25-5.18,4.25-3.29,0-5.14-1.74-5.55-4.34Z" transform="translate(-2198 0)"/><path d="M2315,76.54c0,3.74,1.91,6,4.68,6a4.07,4.07,0,0,0,4.17-2.72h1.47a5.54,5.54,0,0,1-5.69,4.08c-4.4,0-6.1-3.79-6.1-7.46,0-4.14,2.05-7.69,6.27-7.69,4.45,0,5.87,3.84,5.87,6.56,0,.4,0,.81,0,1.18Zm9.17-1.27c0-2.86-1.59-5.11-4.43-5.11s-4.34,2.08-4.65,5.11Z" transform="translate(-2198 0)"/><path d="M2347.9,62.29V79.44c0,1.38,0,2.72,0,4.16h-1.39c-.06-.35-.08-1.71-.08-2.43-.73,1.77-2.35,2.78-4.86,2.78-3.76,0-6-3.07-6-7.41S2338,68.8,2342,68.8c2.9,0,4.05,1.24,4.49,2.16V62.29Zm-10.78,14.2c0,4,2.05,6.1,4.54,6.1,3.81,0,4.85-2.63,4.85-6.57,0-3.73-.89-5.86-4.59-5.86C2339.05,70.16,2337.12,72.44,2337.12,76.49Z" transform="translate(-2198 0)"/><path d="M2353,76.54c0,3.74,1.91,6,4.68,6a4.06,4.06,0,0,0,4.16-2.72h1.48a5.55,5.55,0,0,1-5.7,4.08c-4.39,0-6.1-3.79-6.1-7.46,0-4.14,2.06-7.69,6.28-7.69,4.45,0,5.87,3.84,5.87,6.56,0,.4,0,.81,0,1.18Zm9.16-1.27c0-2.86-1.59-5.11-4.42-5.11s-4.34,2.08-4.66,5.11Z" transform="translate(-2198 0)"/><path d="M2375.13,63.36h6.71c5.55,0,9.4,3.87,9.4,10s-3.76,10.29-9.43,10.29h-6.68Zm1.56,18.8h4.89c5.35,0,8-3.76,8-8.77,0-4.45-2.37-8.58-8-8.58h-4.89Z" transform="translate(-2198 0)"/><path d="M2405.14,80.85a16.18,16.18,0,0,0,.2,2.75H2404a10,10,0,0,1-.26-2.23c-.49,1.07-1.76,2.58-4.74,2.58-3.35,0-4.8-2.17-4.8-4.34,0-3.18,2.46-4.63,6.8-4.63h2.74V73.51c0-1.45-.43-3.38-3.73-3.38-2.92,0-3.35,1.53-3.67,2.71h-1.45c.18-1.59,1.16-4,5.15-4,3.3,0,5.15,1.38,5.15,4.56Zm-1.42-4.62h-2.83c-3.21,0-5.21.84-5.21,3.32a3,3,0,0,0,3.33,3.07c4.13,0,4.71-2.75,4.71-5.87Z" transform="translate(-2198 0)"/><path d="M2407.59,69.14h2.69V64.63h1.45v4.51h3.44V70.5h-3.44v9.4c0,1.62.34,2.54,1.73,2.54a5.31,5.31,0,0,0,1.51-.17v1.27a5,5,0,0,1-1.8.26c-1.85,0-2.89-.92-2.89-3.24V70.5h-2.69Z" transform="translate(-2198 0)"/><path d="M2429.65,76.34c0,4-2.22,7.61-6.53,7.61-3.91,0-6.33-3.21-6.33-7.58,0-4.13,2.28-7.57,6.47-7.57C2427.11,68.8,2429.65,71.8,2429.65,76.34Zm-11.33,0c0,3.44,1.85,6.22,4.91,6.22s4.89-2.58,4.89-6.22c0-3.41-1.74-6.21-4.95-6.21S2418.32,72.9,2418.32,76.37Z" transform="translate(-2198 0)"/><path d="M2433.52,79.61a3.83,3.83,0,0,0,4.11,3c2.57,0,3.61-1.19,3.61-2.81s-.69-2.46-3.93-3.24c-3.73-.89-4.65-2-4.65-3.93s1.5-3.84,4.77-3.84,4.82,2,5.06,4H2441a3.4,3.4,0,0,0-3.67-2.71c-2.52,0-3.24,1.24-3.24,2.4,0,1.33.69,2,3.56,2.68,4.07,1,5.09,2.32,5.09,4.49,0,2.63-2.14,4.25-5.18,4.25-3.3,0-5.15-1.74-5.55-4.34Z" transform="translate(-2198 0)"/><path d="M2270.15,93h11.22c6.2,0,8.72,3.24,8.72,6.8a6,6,0,0,1-3.56,5.83,6.46,6.46,0,0,1,4.37,6.21c0,4.75-3.69,8-9.18,8h-11.57Zm10.55,10.77c3.14,0,4.41-1.34,4.41-3.47S2283.55,97,2281,97h-5.92v6.82Zm-5.62,12.09h5.71c3.21,0,4.95-1.4,4.95-4.15,0-2.41-1.56-4-5.2-4h-5.46Z" transform="translate(-2198 0)"/><path d="M2295.14,91.49H2300V96.2h-4.82Zm0,8.42H2300v19.93h-4.82Z" transform="translate(-2198 0)"/><path d="M2305.21,91.49H2310v10.78c.85-1.42,2.56-2.82,5.92-2.82,5.28,0,8.14,4.36,8.14,10s-3,10.8-8.67,10.8c-3,0-4.46-1-5.44-2.6a12.48,12.48,0,0,1-.19,2.14h-4.61c0-2.19,0-4.4,0-6.58Zm14,18.11c0-3.65-1.48-6.24-4.62-6.24-3.51,0-4.75,2.32-4.75,6.61,0,3.62,1.1,6.44,4.66,6.44C2317.51,116.41,2319.18,113.73,2319.18,109.6Z" transform="translate(-2198 0)"/><path d="M2328.12,119.84V91.49h4.82v28.35Z" transform="translate(-2198 0)"/><path d="M2338.2,91.49H2343V96.2h-4.82Zm0,8.42H2343v19.93h-4.82Z" transform="translate(-2198 0)"/><path d="M2366.34,109.84c0,5.93-3.5,10.46-9.74,10.46-6,0-9.57-4.41-9.57-10.37s3.6-10.48,9.82-10.48C2362.6,99.45,2366.34,103.59,2366.34,109.84Zm-14.4,0c0,4,1.82,6.59,4.79,6.59s4.7-2.53,4.7-6.57c0-4.27-1.7-6.62-4.78-6.62S2351.94,105.55,2351.94,109.88Z" transform="translate(-2198 0)"/><path d="M2368.15,99.91h3.2V94.36h4.82v5.55h4.07v3.7h-4.07v10.45c0,1.65.46,2.38,2.16,2.38a8.15,8.15,0,0,0,1.42-.1v3.39a11.53,11.53,0,0,1-3.46.38c-3.63,0-4.94-1.92-4.94-5.35V103.61h-3.2Z" transform="translate(-2198 0)"/><path d="M2387,110.87c0,3,1.53,5.6,4.49,5.6,2.58,0,3.36-1.16,3.92-2.45h4.83c-.73,2.48-2.89,6.28-8.88,6.28-6.46,0-9.21-5-9.21-10.16,0-6.14,3.13-10.69,9.41-10.69,6.71,0,9,5,9,9.75a12.63,12.63,0,0,1-.07,1.67Zm8.68-3.07c0-2.64-1.21-4.82-4.14-4.82s-4.16,2-4.42,4.82Z" transform="translate(-2198 0)"/><path d="M2421.57,113.51c-.74,3.36-3.07,6.79-8.71,6.79-6,0-9.22-4.17-9.22-10.29,0-5.8,3.45-10.56,9.48-10.56,6.39,0,8.29,4.57,8.45,6.93h-4.72a3.56,3.56,0,0,0-3.83-3.1c-2.85,0-4.47,2.48-4.47,6.57,0,4.34,1.65,6.65,4.42,6.65a3.83,3.83,0,0,0,3.85-3Z" transform="translate(-2198 0)"/><path d="M2441.26,115a41.38,41.38,0,0,0,.27,4.88h-4.6a9.2,9.2,0,0,1-.3-2.17c-.71,1.19-2.14,2.63-5.78,2.63-4.77,0-6.79-3.12-6.79-6.19,0-4.51,3.59-6.58,9.46-6.58h3v-1.38c0-1.53-.53-3.18-3.48-3.18-2.66,0-3.19,1.21-3.48,2.69H2425c.29-3.27,2.31-6.24,8.26-6.21,5.18,0,8,2.08,8,6.75Zm-4.7-4.41H2434c-3.54,0-5.08,1-5.08,3.26a2.88,2.88,0,0,0,3.21,3c3.94,0,4.44-2.7,4.44-5.67Z" transform="translate(-2198 0)"/><rect class="cls-2" x="47.16" y="85.22" width="30" height="30.33"/><rect class="cls-3" x="60.22" y="107.68" width="3" height="5.63"/><rect class="cls-3" x="60.22" y="97.58" width="3" height="5.63"/><rect class="cls-3" x="60.22" y="87.52" width="3" height="5.63"/><rect class="cls-2" x="77.15" y="115.55" width="28.77" height="30"/><rect class="cls-3" x="98.46" y="129.48" width="5.34" height="3"/><rect class="cls-3" x="88.88" y="129.48" width="5.34" height="3"/><rect class="cls-3" x="79.33" y="129.48" width="5.34" height="3"/><rect class="cls-2" x="105.93" y="115.55" width="28.77" height="30"/><rect class="cls-3" x="127.24" y="129.48" width="5.34" height="3"/><rect class="cls-3" x="117.66" y="129.48" width="5.34" height="3"/><rect class="cls-3" x="108.11" y="129.48" width="5.34" height="3"/><rect class="cls-2" x="134.7" y="115.55" width="28.77" height="30"/><rect class="cls-3" x="156.01" y="129.48" width="5.34" height="3"/><rect class="cls-3" x="146.43" y="129.48" width="5.34" height="3"/><rect class="cls-3" x="136.88" y="129.48" width="5.34" height="3"/><rect class="cls-2" x="163.48" y="115.55" width="28.77" height="30"/><rect class="cls-3" x="184.79" y="129.48" width="5.34" height="3"/><rect class="cls-3" x="175.21" y="129.48" width="5.34" height="3"/><rect class="cls-3" x="165.66" y="129.48" width="5.34" height="3"/><rect class="cls-2" x="192.25" y="115.55" width="28.77" height="30"/><rect class="cls-3" x="213.56" y="129.48" width="5.34" height="3"/><rect class="cls-3" x="203.98" y="129.48" width="5.34" height="3"/><rect class="cls-3" x="194.43" y="129.48" width="5.34" height="3"/><rect class="cls-3" x="60.88" y="117.61" width="3.01" height="5"/><polygon class="cls-4" points="60.88 131.61 60.88 126.61 63.89 126.61 63.89 128.61 65.88 128.61 65.88 131.61 60.88 131.61"/><rect class="cls-3" x="69.88" y="128.61" width="5" height="3"/></svg>