<svg id="Layer_1" data-name="Layer 1" xmlns="http://www.w3.org/2000/svg" viewBox="0 0 302.26 391.04"><defs><style>.cls-1{fill:#5d5f71;}.cls-2{fill:#f2f2f2;}.cls-3{fill:none;}.cls-4,.cls-5{fill:#231f20;}.cls-5{fill-rule:evenodd;}</style></defs><circle class="cls-1" cx="158.62" cy="123" r="123"/><path class="cls-2" d="M1028.46,283.59h-15.93V226.4a3.91,3.91,0,0,0-3.92-3.92H996.86a3.92,3.92,0,0,0-3.92,3.92v57.19h-3.13V217a3.91,3.91,0,0,0-3.92-3.92H974.14a3.92,3.92,0,0,0-3.92,3.92v66.59h-5.69a3.94,3.94,0,0,0,.06-1.64l-15.92-87.09a3.93,3.93,0,0,0-4.57-3.16l-19.18,3.51-.17,0a3.72,3.72,0,0,0-1.16-.2H904.41A3.91,3.91,0,0,0,900.5,199v84.61h-7v-89a4,4,0,0,0-3.11-4,3.92,3.92,0,0,0-4.73,3.83v93a3.92,3.92,0,0,0,3.92,3.91h138.78a4,4,0,0,0,4-3.1A3.93,3.93,0,0,0,1028.46,283.59ZM927.92,231.44l9.53,52.15h-9.53Z" transform="translate(-795.16 -117.5)"/><path d="M825.13,387.87h11.09c6.09,0,9.37,3.23,9.37,7.82a6.89,6.89,0,0,1-4.91,7,8,8,0,0,1,6.05,7.86c0,6.37-4.78,9.19-10.33,9.19H825.13Zm10.27,13.69c5.5,0,7.6-2.05,7.6-5.73,0-3.14-2.19-5.69-6.64-5.69h-8.82v11.42Zm-7.86,15.87h9c4.19,0,7.69-2.1,7.69-6.78,0-4-2.59-6.82-9-6.82h-7.64Z" transform="translate(-795.16 -117.5)"/><path d="M868.51,415.38a25.58,25.58,0,0,0,.32,4.32h-2.19a15,15,0,0,1-.41-3.5c-.77,1.68-2.77,4.05-7.45,4.05-5.28,0-7.55-3.42-7.55-6.83,0-5,3.86-7.27,10.68-7.27h4.32v-2.32c0-2.27-.68-5.32-5.86-5.32-4.59,0-5.28,2.41-5.78,4.27h-2.27c.27-2.5,1.82-6.36,8.09-6.36,5.19,0,8.1,2.18,8.1,7.18Zm-2.23-7.28h-4.46c-5,0-8.18,1.32-8.18,5.23,0,2.87,2,4.82,5.23,4.82,6.5,0,7.41-4.32,7.41-9.23Z" transform="translate(-795.16 -117.5)"/><path d="M875.78,413.42c.78,3,2.87,4.73,6.46,4.73,4,0,5.69-1.86,5.69-4.41s-1.1-3.86-6.19-5.09c-5.86-1.41-7.32-3.18-7.32-6.18s2.36-6.05,7.5-6.05,7.6,3.14,8,6.36h-2.27c-.41-1.91-1.91-4.27-5.78-4.27s-5.09,1.95-5.09,3.77c0,2.1,1.09,3.14,5.59,4.23,6.41,1.55,8,3.64,8,7.05,0,4.14-3.36,6.69-8.13,6.69-5.19,0-8.1-2.73-8.73-6.83Z" transform="translate(-795.16 -117.5)"/><path d="M896.47,408.6c0,5.87,3,9.51,7.37,9.51s5.73-2.41,6.55-4.28h2.32c-1,3-3.37,6.42-9,6.42-6.91,0-9.6-6-9.6-11.74,0-6.5,3.23-12.09,9.87-12.09,7,0,9.23,6.05,9.23,10.32,0,.64,0,1.27,0,1.86Zm14.42-2c0-4.5-2.5-8.05-7-8.05-4.68,0-6.82,3.28-7.32,8.05Z" transform="translate(-795.16 -117.5)"/><path d="M948.18,386.19v27c0,2.18,0,4.28,0,6.55H946c-.09-.55-.14-2.68-.14-3.82-1.13,2.77-3.68,4.37-7.64,4.37-5.91,0-9.45-4.83-9.45-11.65,0-7,3.86-12.18,10-12.18,4.55,0,6.37,1.95,7,3.41V386.19Zm-17,22.32c0,6.23,3.22,9.6,7.13,9.6,6,0,7.64-4.14,7.64-10.32,0-5.87-1.41-9.24-7.23-9.24C934.26,398.55,931.22,402.15,931.22,408.51Z" transform="translate(-795.16 -117.5)"/><path d="M956.13,408.6c0,5.87,3,9.51,7.37,9.51s5.73-2.41,6.55-4.28h2.32c-1,3-3.37,6.42-9,6.42-6.91,0-9.59-6-9.59-11.74,0-6.5,3.22-12.09,9.86-12.09,7,0,9.23,6.05,9.23,10.32,0,.64,0,1.27,0,1.86Zm14.42-2c0-4.5-2.5-8.05-7-8.05-4.68,0-6.82,3.28-7.32,8.05Z" transform="translate(-795.16 -117.5)"/><path d="M991,387.87h10.55c8.73,0,14.78,6.09,14.78,15.64s-5.91,16.19-14.82,16.19H991Zm2.46,29.56h7.68c8.42,0,12.55-5.92,12.55-13.78,0-7-3.73-13.51-12.55-13.51h-7.68Z" transform="translate(-795.16 -117.5)"/><path d="M1038.21,415.38a26.71,26.71,0,0,0,.32,4.32h-2.18a15,15,0,0,1-.41-3.5c-.77,1.68-2.77,4.05-7.46,4.05-5.27,0-7.55-3.42-7.55-6.83,0-5,3.87-7.27,10.69-7.27h4.32v-2.32c0-2.27-.68-5.32-5.87-5.32-4.59,0-5.27,2.41-5.77,4.27H1022c.27-2.5,1.81-6.36,8.09-6.36,5.18,0,8.09,2.18,8.09,7.18ZM1036,408.1h-4.46c-5,0-8.19,1.32-8.19,5.23,0,2.87,2.05,4.82,5.23,4.82,6.51,0,7.42-4.32,7.42-9.23Z" transform="translate(-795.16 -117.5)"/><path d="M1042.08,397h4.23v-7.09h2.27V397H1054v2.14h-5.41v14.78c0,2.55.55,4,2.73,4a8.94,8.94,0,0,0,2.37-.27v2a8,8,0,0,1-2.82.41c-2.91,0-4.55-1.46-4.55-5.1V399.1h-4.23Z" transform="translate(-795.16 -117.5)"/><path d="M1076.78,408.29c0,6.32-3.51,12-10.28,12-6.14,0-10-5.05-10-11.92,0-6.5,3.59-11.91,10.19-11.91C1072.77,396.42,1076.78,401.15,1076.78,408.29Zm-17.83,0c0,5.41,2.91,9.78,7.73,9.78s7.69-4.05,7.69-9.78c0-5.36-2.73-9.78-7.78-9.78S1059,402.88,1059,408.33Z" transform="translate(-795.16 -117.5)"/><path d="M1082.87,413.42c.77,3,2.86,4.73,6.46,4.73,4,0,5.68-1.86,5.68-4.41s-1.09-3.86-6.18-5.09c-5.87-1.41-7.33-3.18-7.33-6.18s2.37-6.05,7.51-6.05,7.59,3.14,8,6.36h-2.27c-.41-1.91-1.91-4.27-5.77-4.27s-5.1,1.95-5.1,3.77c0,2.1,1.1,3.14,5.6,4.23,6.41,1.55,8,3.64,8,7.05,0,4.14-3.37,6.69-8.14,6.69-5.18,0-8.09-2.73-8.73-6.83Z" transform="translate(-795.16 -117.5)"/><path d="M825.88,434.53h17.65c9.75,0,13.72,5.1,13.72,10.7,0,4.81-2.62,7.93-5.6,9.16a10.17,10.17,0,0,1,6.86,9.78c0,7.47-5.8,12.53-14.43,12.53h-18.2Zm16.6,16.94c4.94,0,6.93-2.1,6.93-5.46s-2.46-5.27-6.46-5.27h-9.31v10.73Zm-8.84,19h9c5,0,7.78-2.21,7.78-6.52,0-3.8-2.45-6.29-8.18-6.29h-8.58Z" transform="translate(-795.16 -117.5)"/><path d="M865.18,432.1h7.58v7.41h-7.58Zm0,13.26h7.58V476.7h-7.58Z" transform="translate(-795.16 -117.5)"/><path d="M881,432.1h7.58v17c1.33-2.24,4-4.44,9.31-4.44,8.31,0,12.8,6.85,12.8,15.81,0,9.17-4.67,17-13.63,17-4.78,0-7-1.56-8.57-4.09a21.56,21.56,0,0,1-.29,3.36H881c.06-3.43.06-6.91.06-10.34Zm22,28.49c0-5.74-2.33-9.81-7.26-9.81-5.53,0-7.49,3.65-7.49,10.39,0,5.7,1.74,10.15,7.33,10.15C900.38,471.32,903,467.09,903,460.59Z" transform="translate(-795.16 -117.5)"/><path d="M917.07,476.7V432.1h7.58v44.6Z" transform="translate(-795.16 -117.5)"/><path d="M932.93,432.1h7.58v7.41h-7.58Zm0,13.26h7.58V476.7h-7.58Z" transform="translate(-795.16 -117.5)"/><path d="M977.19,461c0,9.33-5.5,16.46-15.31,16.46-9.48,0-15.07-6.94-15.07-16.32,0-9.53,5.67-16.48,15.46-16.48C971.32,444.63,977.19,451.14,977.19,461Zm-22.66.06c0,6.31,2.88,10.37,7.55,10.37s7.39-4,7.39-10.33c0-6.72-2.67-10.42-7.52-10.42C957.31,450.65,954.53,454.22,954.53,461Z" transform="translate(-795.16 -117.5)"/><path d="M980,445.36h5v-8.75h7.58v8.75h6.4v5.81h-6.4v16.44c0,2.6.73,3.74,3.4,3.74a13.9,13.9,0,0,0,2.23-.15v5.33a17.83,17.83,0,0,1-5.45.6c-5.69,0-7.76-3-7.76-8.42V451.17h-5Z" transform="translate(-795.16 -117.5)"/><path d="M1009.76,462.59c0,4.75,2.4,8.81,7.06,8.81,4.06,0,5.28-1.82,6.17-3.85h7.6c-1.16,3.9-4.56,9.88-14,9.88-10.17,0-14.49-7.82-14.49-16,0-9.66,4.93-16.81,14.81-16.81,10.55,0,14.09,7.89,14.09,15.33a21.84,21.84,0,0,1-.1,2.63Zm13.64-4.82c-.06-4.15-1.9-7.59-6.5-7.59s-6.54,3.2-7,7.59Z" transform="translate(-795.16 -117.5)"/><path d="M1064.08,466.75c-1.17,5.28-4.83,10.68-13.71,10.68-9.38,0-14.51-6.57-14.51-16.19,0-9.13,5.44-16.61,14.91-16.61,10.06,0,13.06,7.19,13.31,10.91h-7.43c-.62-2.77-2.25-4.89-6-4.89-4.5,0-7.05,3.91-7.05,10.34,0,6.82,2.61,10.45,7,10.45,3.29,0,5.12-1.87,6.07-4.69Z" transform="translate(-795.16 -117.5)"/><path d="M1095,469a63.2,63.2,0,0,0,.43,7.67h-7.24a14,14,0,0,1-.47-3.41c-1.12,1.87-3.37,4.14-9.1,4.14-7.5,0-10.68-4.91-10.68-9.74,0-7.1,5.66-10.36,14.89-10.36h4.77v-2.17c0-2.41-.83-5-5.48-5-4.19,0-5,1.9-5.47,4.23h-7.24c.45-5.15,3.63-9.82,13-9.77,8.15,0,12.6,3.26,12.6,10.61Zm-7.39-6.94h-4.05c-5.57,0-8,1.64-8,5.13,0,2.6,1.67,4.67,5,4.67,6.2,0,7-4.25,7-8.92Z" transform="translate(-795.16 -117.5)"/><rect class="cls-3" y="304.74" width="30" height="28.15"/><rect class="cls-4" x="13.06" y="325.59" width="3" height="5.23"/><rect class="cls-4" x="13.06" y="316.22" width="3" height="5.23"/><rect class="cls-4" x="13.06" y="306.88" width="3" height="5.23"/><rect class="cls-3" y="332.9" width="30" height="28.15"/><rect class="cls-4" x="13.06" y="353.74" width="3" height="5.23"/><rect class="cls-4" x="13.06" y="344.37" width="3" height="5.23"/><rect class="cls-4" x="13.06" y="335.03" width="3" height="5.23"/><rect class="cls-3" x="30" y="361.05" width="26.1" height="30"/><rect class="cls-4" x="49.33" y="374.98" width="4.84" height="3"/><rect class="cls-4" x="40.64" y="374.98" width="4.84" height="3"/><rect class="cls-4" x="31.97" y="374.98" width="4.84" height="3"/><rect class="cls-3" x="56.1" y="361.05" width="26.1" height="30"/><rect class="cls-4" x="75.43" y="374.98" width="4.84" height="3"/><rect class="cls-4" x="66.74" y="374.98" width="4.84" height="3"/><rect class="cls-4" x="58.08" y="374.98" width="4.84" height="3"/><rect class="cls-3" x="82.2" y="361.05" width="26.1" height="30"/><rect class="cls-4" x="101.53" y="374.98" width="4.84" height="3"/><rect class="cls-4" x="92.84" y="374.98" width="4.84" height="3"/><rect class="cls-4" x="84.18" y="374.98" width="4.84" height="3"/><rect class="cls-3" x="108.3" y="361.05" width="26.1" height="30"/><rect class="cls-4" x="127.63" y="374.98" width="4.84" height="3"/><rect class="cls-4" x="118.94" y="374.98" width="4.84" height="3"/><rect class="cls-4" x="110.28" y="374.98" width="4.84" height="3"/><rect class="cls-3" x="134.4" y="361.05" width="26.1" height="30"/><rect class="cls-4" x="153.73" y="374.98" width="4.84" height="3"/><rect class="cls-4" x="145.04" y="374.98" width="4.84" height="3"/><rect class="cls-4" x="136.38" y="374.98" width="4.84" height="3"/><rect class="cls-3" x="160.51" y="361.05" width="26.1" height="30"/><rect class="cls-4" x="179.83" y="374.98" width="4.84" height="3"/><rect class="cls-4" x="171.15" y="374.98" width="4.84" height="3"/><rect class="cls-4" x="162.48" y="374.98" width="4.84" height="3"/><rect class="cls-3" x="186.61" y="361.05" width="26.1" height="30"/><rect class="cls-4" x="205.94" y="374.98" width="4.84" height="3"/><rect class="cls-4" x="197.25" y="374.98" width="4.84" height="3"/><rect class="cls-4" x="188.59" y="374.98" width="4.84" height="3"/><rect class="cls-3" x="212.71" y="361.05" width="26.1" height="30"/><rect class="cls-4" x="232.04" y="374.98" width="4.84" height="3"/><rect class="cls-4" x="223.35" y="374.98" width="4.84" height="3"/><rect class="cls-4" x="214.69" y="374.98" width="4.84" height="3"/><rect class="cls-3" x="238.81" y="361.05" width="26.1" height="30"/><rect class="cls-4" x="258.14" y="374.98" width="4.84" height="3"/><rect class="cls-4" x="249.45" y="374.98" width="4.84" height="3"/><rect class="cls-4" x="240.79" y="374.98" width="4.84" height="3"/><rect class="cls-4" x="13.73" y="363.11" width="3.01" height="5"/><polygon class="cls-5" points="13.72 377.11 13.72 372.11 16.74 372.11 16.74 374.11 18.73 374.11 18.73 377.11 13.72 377.11"/><rect class="cls-4" x="22.73" y="374.11" width="5" height="3"/></svg>