<svg id="Layer_1" data-name="Layer 1" xmlns="http://www.w3.org/2000/svg" viewBox="0 0 246 246"><defs><style>.cls-1{fill:#5d5f71;}.cls-2{fill:#f2f2f2;}</style></defs><circle class="cls-1" cx="123" cy="123" r="123"/><path class="cls-2" d="M1028.46,283.59h-15.93V226.4a3.91,3.91,0,0,0-3.92-3.92H996.86a3.92,3.92,0,0,0-3.92,3.92v57.19h-3.13V217a3.91,3.91,0,0,0-3.92-3.92H974.14a3.92,3.92,0,0,0-3.92,3.92v66.59h-5.69a3.94,3.94,0,0,0,.06-1.64l-15.92-87.09a3.93,3.93,0,0,0-4.57-3.16l-19.18,3.51-.17,0a3.72,3.72,0,0,0-1.16-.2H904.41A3.91,3.91,0,0,0,900.5,199v84.61h-7v-89a4,4,0,0,0-3.11-4,3.92,3.92,0,0,0-4.73,3.83v93a3.92,3.92,0,0,0,3.92,3.91h138.78a4,4,0,0,0,4-3.1A3.93,3.93,0,0,0,1028.46,283.59ZM927.92,231.44l9.53,52.15h-9.53Z" transform="translate(-830.77 -117.5)"/></svg>